<svg xmlns="http://www.w3.org/2000/svg" id="Layer_1" data-name="Layer 1" viewBox="0 0 50 50"><defs><style>.cls-1{fill:#fff}</style></defs><title>logos</title><rect width="3.58" height="4.06" x="17.97" y="15.01" class="cls-1"/><rect width="3.58" height="4.06" x="23.07" y="15.01" class="cls-1"/><rect width="3.58" height="4.06" x="28.37" y="15.01" class="cls-1"/><rect width="3.58" height="13.92" x="17.97" y="20.77" class="cls-1"/><rect width="3.58" height="13.92" x="12.81" y="20.77" class="cls-1"/><rect width="3.58" height="13.92" x="23.07" y="20.77" class="cls-1"/><polygon points="28.37 34.69 28.37 20.77 36.77 20.77 28.37 34.69" class="cls-1"/><path d="M37.65,3.8l-2.1,3.1A20.77,20.77,0,0,0,10,39.1L7.41,41.83A24.49,24.49,0,0,1,8,7.18c.27-.26.55-.52.84-.77A24.52,24.52,0,0,1,37.65,3.8Z" class="cls-1"/><path d="M41.21,43.22a24.5,24.5,0,0,1-31,1.08l2.1-3.09a20.77,20.77,0,0,0,26-32.4l2.55-2.73a24.51,24.51,0,0,1,.38,37.14Z" class="cls-1"/></svg>