<svg xmlns="http://www.w3.org/2000/svg" id="Layer_1" data-name="Layer 1" viewBox="0 0 24 24"><defs><style>.cls-1{fill:#15cae7}.cls-2{fill:none}</style></defs><title>discordLogo</title><path d="M9.59678,4.18032c-.486.11586-.95409.21559-1.41554.33989a10.94035,10.94035,0,0,0-2.8311,1.18208c-.34409.20777-.4478.48594-.28942.75514.15768.268.44686.305.80162.09909a11.97609,11.97609,0,0,1,6.02074-1.55976,12.08652,12.08652,0,0,1,6.3631,1.61229.49279.49279,0,0,0,.71349-.158.50441.50441,0,0,0-.2417-.71661,11.99766,11.99766,0,0,0-3.96961-1.4728c-.07484-.01491-.15053-.02623-.22446-.04471a.37435.37435,0,0,1-.08325-.04445c.11215-.60663.281-.73015.88963-.65253A11.9153,11.9153,0,0,1,19.382,4.74372,3.72758,3.72758,0,0,1,21.0749,6.49688a24.13431,24.13431,0,0,1,2.02315,6.47938c.21369,1.26625.28846,2.55688.39729,3.839a1.13373,1.13373,0,0,1-.18364.63728,5.26582,5.26582,0,0,1-1.99678,1.80309,10.89157,10.89157,0,0,1-3.973,1.25166.71162.71162,0,0,1-.75358-.33621c-.24564-.36851-.51637-.72029-.79513-1.10527.41851-.13809.79121-.25188,1.15743-.3837A9.43208,9.43208,0,0,0,19.462,17.35883a.52838.52838,0,0,0,.25562-.61638.4849.4849,0,0,0-.794-.2246A9.778,9.778,0,0,1,14.75625,18.249a13.35487,13.35487,0,0,1-8.4991-1.01313,10.19585,10.19585,0,0,1-1.1126-.6872c-.31772-.21123-.59343-.20375-.77719.05068a.51629.51629,0,0,0,.16662.74127,10.11855,10.11855,0,0,0,3.31328,1.60076c.10412.031.20788.06329.39675.12088-.37213.47853-.71187.93527-1.07895,1.36885a.49055.49055,0,0,1-.36964.07632A9.75663,9.75663,0,0,1,1.74506,18.607c-.1631-.1272-.31-.27554-.46161-.41706a2.35038,2.35038,0,0,1-.77184-2.041A29.38008,29.38008,0,0,1,2.649,7.07523,4.62484,4.62484,0,0,1,5.34623,4.39585a13.69249,13.69249,0,0,1,3.54108-.90522C9.27215,3.44639,9.42835,3.599,9.59678,4.18032ZM8.852,11.00338a1.64778,1.64778,0,0,0-1.29773.55138,2.206,2.206,0,0,0-.03577,2.85434,1.59019,1.59019,0,0,0,2.48635-.00952,2.19818,2.19818,0,0,0,.26273-2.39654A1.67037,1.67037,0,0,0,8.852,11.00338Zm8.15941,1.93906c-.0154-.10779-.03027-.27114-.063-.43083a1.807,1.807,0,0,0-1.62876-1.50525,1.75017,1.75017,0,0,0-1.72046,1.38587,2.12769,2.12769,0,0,0,.367,1.95146,1.59491,1.59491,0,0,0,2.58877-.00607A2.27384,2.27384,0,0,0,17.01145,12.94244Z" class="cls-1"/><path d="M8.852,11.00338a1.67037,1.67037,0,0,1,1.41558.99966,2.19818,2.19818,0,0,1-.26273,2.39654,1.59019,1.59019,0,0,1-2.48635.00952,2.206,2.206,0,0,1,.03577-2.85434A1.64778,1.64778,0,0,1,8.852,11.00338Z" class="cls-2"/><path d="M17.01145,12.94244a2.27384,2.27384,0,0,1-.45647,1.39518,1.59491,1.59491,0,0,1-2.58877.00607,2.12769,2.12769,0,0,1-.367-1.95146,1.75017,1.75017,0,0,1,1.72046-1.38587,1.807,1.807,0,0,1,1.62876,1.50525C16.98118,12.6713,16.99605,12.83465,17.01145,12.94244Z" class="cls-2"/></svg>